<?xml version="1.0" standalone="no"?>
<!DOCTYPE svg PUBLIC "-//W3C//DTD SVG 20010904//EN"
 "http://www.w3.org/TR/2001/REC-SVG-20010904/DTD/svg10.dtd">
<svg version="1.0" xmlns="http://www.w3.org/2000/svg"
 width="648.000000pt" height="368.000000pt" viewBox="0 0 648.000000 368.000000"
 preserveAspectRatio="xMidYMid meet">

<g transform="translate(0.000000,368.000000) scale(0.100000,-0.100000)"
fill="#000000" stroke="none">
<path d="M6034 3608 c-3 -5 -12 -7 -20 -4 -20 8 -128 -14 -136 -27 -5 -8 -8
-5 -8 6 0 17 -2 17 -22 3 -16 -11 -25 -13 -35 -4 -9 7 -13 7 -13 -1 0 -6 -11
-8 -30 -4 -18 3 -30 1 -30 -5 0 -9 -18 -14 -87 -26 -13 -2 -23 2 -23 8 0 7 -4
6 -9 -2 -4 -7 -21 -14 -37 -16 -16 -2 -29 -4 -29 -5 0 -1 -24 -4 -54 -7 -30
-2 -60 -9 -68 -15 -9 -8 -13 -8 -13 0 0 18 -20 12 -21 -6 0 -16 -1 -16 -8 1
-5 12 -10 15 -14 9 -7 -10 -88 -28 -116 -26 -8 1 -20 -6 -26 -14 -9 -13 -16
-13 -33 -4 -12 6 -22 8 -22 3 0 -8 -93 -28 -113 -23 -4 1 -16 -3 -26 -8 -12
-7 -22 -6 -29 1 -9 9 -12 9 -12 -1 0 -9 -9 -12 -24 -9 -14 3 -27 0 -29 -6 -3
-6 -28 -11 -58 -11 -41 0 -58 -4 -71 -19 -10 -10 -18 -15 -18 -10 0 6 -9 10
-20 11 -11 1 -20 -1 -20 -5 0 -4 -20 -8 -45 -9 -24 -1 -77 -9 -118 -17 -40 -9
-86 -13 -101 -10 -27 5 -28 3 -23 -26 6 -25 4 -28 -7 -18 -8 7 -11 17 -8 22 3
5 -2 7 -11 3 -10 -3 -17 -2 -17 4 0 6 -7 4 -15 -5 -9 -8 -22 -13 -30 -10 -8 4
-15 2 -15 -4 0 -6 -3 -17 -6 -26 -3 -9 -1 -16 6 -16 6 0 26 -11 44 -25 18 -14
36 -22 39 -18 4 3 7 1 7 -5 0 -7 7 -12 15 -12 8 0 15 -4 15 -9 0 -7 44 -30 67
-35 4 0 18 -12 31 -25 19 -19 26 -21 33 -10 7 11 9 11 9 1 0 -18 23 -39 37
-35 6 2 14 -5 18 -17 3 -11 11 -18 16 -14 6 3 21 -4 35 -16 16 -16 36 -23 63
-23 30 0 36 -3 27 -12 -8 -10 -13 -10 -18 -1 -5 7 -8 7 -8 0 0 -18 13 -24 27
-12 11 8 12 7 7 -6 -5 -13 8 -23 19 -13 1 1 13 -8 27 -21 13 -12 29 -21 35
-18 6 2 11 -4 12 -13 1 -9 3 -21 4 -26 4 -15 -37 -76 -45 -68 -4 4 -4 -1 0
-12 6 -14 4 -17 -8 -12 -10 3 -19 0 -22 -9 -4 -10 -2 -12 6 -8 7 4 8 3 4 -4
-4 -7 -13 -12 -21 -12 -8 0 -17 -5 -21 -12 -4 -7 -3 -8 4 -4 8 5 10 2 6 -8 -3
-9 -9 -14 -13 -12 -3 2 -12 -2 -19 -10 -7 -8 -9 -14 -5 -14 4 0 1 -5 -7 -10
-12 -7 -13 -13 -3 -28 7 -13 8 -23 1 -33 -8 -11 -9 -11 -5 3 3 9 0 22 -8 28
-10 8 -18 2 -36 -27 -13 -21 -32 -47 -44 -58 -12 -12 -20 -26 -17 -33 2 -7 0
-12 -5 -11 -22 4 -33 -3 -33 -19 0 -18 -22 -52 -52 -80 -13 -12 -14 -20 -6
-35 12 -22 -4 -47 -17 -26 -5 8 -4 10 3 5 7 -4 12 -3 12 3 0 17 -17 22 -28 8
-6 -7 -14 -32 -18 -54 -4 -30 -10 -40 -20 -36 -8 3 -14 0 -14 -7 0 -6 -4 -8
-10 -5 -5 3 -10 -1 -10 -9 0 -9 -4 -16 -10 -16 -5 0 -10 -5 -10 -11 0 -5 5 -7
12 -3 7 4 8 3 4 -4 -4 -6 -14 -8 -24 -5 -16 6 -16 5 1 -14 9 -11 17 -26 16
-34 0 -8 -5 -3 -11 11 -11 24 -12 24 -15 3 -5 -24 -33 -54 -33 -34 0 6 5 11
10 11 6 0 10 7 10 16 0 13 -3 14 -15 4 -14 -11 -69 -99 -70 -111 0 -3 -8 -13
-18 -23 -9 -10 -17 -25 -17 -34 0 -15 -2 -15 -10 -2 -8 13 -10 13 -10 -2 0 -9
-8 -23 -18 -30 -22 -17 -44 -66 -36 -80 5 -7 2 -8 -5 -4 -7 5 -10 15 -7 23 4
8 1 11 -5 7 -6 -3 -9 -14 -6 -24 3 -12 0 -17 -8 -14 -7 3 -21 -8 -31 -25 -10
-17 -22 -31 -26 -31 -4 0 -8 -5 -8 -11 0 -5 5 -7 12 -3 7 4 8 3 4 -4 -4 -7
-14 -12 -22 -12 -8 0 -14 -7 -14 -16 0 -8 -4 -13 -9 -10 -10 7 -22 -18 -17
-36 1 -7 1 -10 -1 -5 -3 4 -9 7 -14 7 -6 0 -8 -4 -5 -8 3 -5 -4 -19 -15 -30
-11 -12 -17 -22 -14 -22 3 0 -5 -11 -17 -25 -47 -52 -54 -62 -78 -100 -13 -22
-31 -45 -39 -51 -8 -6 -11 -16 -7 -23 4 -7 -3 -15 -19 -21 -20 -8 -25 -15 -20
-27 3 -10 3 -14 -1 -11 -8 9 -39 -21 -39 -39 0 -7 -4 -12 -9 -12 -5 0 -23 -24
-41 -55 -17 -31 -35 -53 -38 -49 -4 3 -7 0 -7 -8 0 -8 -9 -20 -19 -26 -19 -12
-44 -49 -57 -85 -3 -10 -10 -18 -15 -18 -5 0 -9 -9 -9 -19 0 -11 -5 -23 -12
-27 -7 -5 -9 -2 -4 7 4 8 -4 1 -19 -16 -14 -17 -24 -38 -21 -48 3 -14 1 -16
-9 -7 -10 8 -14 5 -19 -14 -4 -18 -11 -24 -22 -19 -13 5 -15 2 -10 -14 5 -15
-3 -31 -32 -61 -21 -21 -36 -45 -34 -51 2 -6 -2 -10 -8 -9 -11 3 -36 -29 -56
-69 -3 -7 -10 -10 -15 -7 -5 3 -12 -9 -16 -26 -4 -22 -8 -28 -14 -18 -7 10 -9
9 -9 -4 0 -9 -8 -23 -18 -30 -22 -17 -44 -66 -36 -80 5 -7 2 -8 -5 -4 -7 5
-10 15 -7 23 4 8 1 11 -5 7 -6 -3 -9 -14 -6 -24 3 -11 -1 -17 -12 -16 -9 0
-16 -7 -16 -17 0 -10 -6 -22 -14 -27 -12 -7 -13 -11 -1 -24 11 -14 10 -16 -4
-10 -11 4 -16 1 -16 -12 0 -16 -2 -17 -10 -4 -8 13 -10 12 -10 -3 0 -10 -4
-15 -10 -12 -9 5 -15 -16 -11 -38 1 -5 -3 -6 -9 -2 -5 3 -10 1 -10 -5 0 -6 -4
-9 -9 -5 -5 3 -12 -4 -16 -15 -3 -11 -11 -20 -16 -20 -6 0 -8 -3 -6 -7 2 -5
-6 -18 -19 -31 -13 -12 -24 -20 -24 -17 0 3 -19 -7 -42 -23 -64 -43 -111 -66
-130 -63 -11 1 -18 -4 -18 -14 0 -9 -4 -13 -10 -10 -5 3 -10 1 -10 -4 0 -6
-11 -11 -25 -11 -14 0 -25 -4 -25 -8 0 -5 -6 -9 -12 -10 -58 -5 -138 -24 -138
-33 0 -5 -6 -6 -14 -3 -8 3 -17 0 -21 -5 -3 -6 -11 -9 -16 -6 -5 4 -16 2 -25
-3 -12 -7 -9 -9 15 -10 18 0 31 4 31 11 0 9 3 9 8 -1 6 -9 62 -13 201 -17 106
-2 196 -7 200 -9 4 -3 57 -5 118 -4 60 1 115 -2 122 -6 6 -4 11 -2 11 5 0 10
3 10 12 1 17 -17 168 -16 168 1 0 9 3 8 9 -2 5 -7 13 -11 19 -7 6 3 13 0 15
-6 4 -10 8 -10 15 1 5 7 11 9 13 4 6 -15 723 -42 755 -28 11 4 30 10 44 12 14
2 30 10 35 17 6 7 15 11 21 9 11 -4 38 30 61 77 13 25 13 25 7 1 -4 -16 -3
-21 5 -17 6 4 11 19 11 33 0 15 3 24 6 20 9 -9 75 66 69 80 -2 7 0 12 5 10 6
-1 22 18 36 42 15 24 23 41 18 38 -6 -3 -10 3 -10 13 0 14 4 16 18 9 17 -9 37
6 24 18 -3 4 3 13 14 20 11 8 17 19 14 25 -4 6 -3 8 3 5 15 -10 73 69 76 102
1 16 6 27 11 23 5 -3 7 2 3 11 -4 12 -2 14 10 10 10 -4 14 -2 10 4 -4 6 -1 13
5 16 10 3 10 7 -1 21 -12 14 -12 16 2 11 10 -4 17 1 22 14 3 12 11 21 16 21 5
0 2 -11 -7 -25 -9 -14 -14 -28 -10 -32 3 -3 6 -1 6 5 0 6 12 24 26 41 14 17
23 34 20 39 -2 4 0 14 6 22 8 12 9 12 4 -2 -3 -10 -1 -18 4 -18 6 0 10 5 10
11 0 12 47 81 84 123 14 16 26 35 26 43 0 8 4 12 9 8 5 -3 12 4 16 15 3 11 24
43 46 71 25 31 38 56 35 66 -5 12 -4 13 7 5 14 -12 27 -6 27 12 0 6 -5 4 -10
-4 -7 -12 -9 -11 -8 6 1 12 9 21 18 20 8 -1 15 7 15 16 0 10 9 24 20 32 11 9
16 16 10 16 -7 0 -7 3 0 8 6 4 28 26 49 49 38 41 39 43 22 62 -14 16 -15 23
-6 38 9 15 10 15 4 -7 -6 -22 -5 -23 9 -12 9 8 13 20 10 28 -3 8 -1 14 4 14
20 0 22 -14 6 -32 -13 -15 -14 -18 -2 -18 8 0 21 15 27 34 7 19 19 37 27 40 8
3 15 13 15 22 0 10 3 15 6 11 3 -3 17 7 31 23 20 25 22 33 13 51 -8 15 -9 19
-1 15 6 -4 11 -2 11 4 0 6 5 8 11 4 8 -4 7 -9 -2 -16 -11 -8 -11 -9 1 -5 8 2
14 11 12 20 -1 8 2 18 8 22 7 4 7 12 0 25 -8 15 -7 18 3 14 8 -3 19 1 25 8 10
12 12 18 12 36 0 4 4 1 9 -6 6 -10 10 -9 14 7 3 12 1 19 -3 16 -5 -3 -11 -2
-14 3 -3 5 1 9 9 10 8 1 22 3 30 4 8 1 15 7 15 14 0 6 7 15 16 18 8 3 13 10
10 15 -3 4 3 19 14 31 11 12 22 30 25 40 3 10 12 21 20 24 8 3 15 13 15 21 0
9 5 13 10 10 6 -3 10 1 10 10 0 10 5 13 12 9 6 -4 8 -3 5 3 -4 6 0 16 8 23 8
7 15 18 15 26 0 7 9 18 20 24 11 6 20 19 20 30 0 10 5 22 12 26 7 5 8 3 3 -6
-5 -9 -4 -11 3 -6 7 4 12 13 12 21 0 7 7 16 16 19 9 4 14 13 10 22 -4 9 -2 13
5 8 6 -4 15 0 20 7 13 22 11 33 -5 20 -10 -8 -16 -9 -21 -1 -4 6 -1 9 6 8 7
-2 19 8 27 22 13 23 13 24 9 3 -8 -35 7 -27 21 10 7 19 23 40 36 47 21 11 27
10 41 -4 9 -9 21 -14 26 -11 5 4 9 -1 9 -10 0 -9 5 -13 10 -10 6 3 14 -4 19
-17 6 -13 10 -19 10 -14 1 6 16 -5 35 -23 22 -22 39 -31 48 -26 7 5 10 5 6 0
-9 -9 26 -42 53 -50 11 -4 19 -11 19 -16 0 -5 6 -9 13 -9 16 -1 67 -46 67 -60
0 -6 8 -10 18 -8 10 2 16 -2 14 -10 -1 -7 5 -12 15 -10 12 2 17 -2 15 -12 -2
-8 0 -12 4 -7 4 4 15 1 23 -7 15 -14 16 -9 15 51 -1 36 -6 77 -10 91 -4 15 -8
36 -9 47 -5 61 -18 121 -28 134 -9 12 -9 13 1 7 10 -6 11 -2 7 16 -10 41 -13
62 -14 98 -1 23 -4 30 -10 22 -6 -9 -8 -5 -8 15 -1 61 -13 209 -19 233 -4 14
-6 36 -5 50 1 17 -1 21 -7 12 -5 -8 -8 4 -7 33 1 25 -1 45 -5 45 -4 0 -6 10
-5 22 1 13 -5 29 -12 37 -11 10 -11 16 -3 21 9 5 9 17 2 44 -7 24 -7 36 0 36
6 0 7 7 2 18 -7 18 -15 71 -16 109 0 13 -3 21 -7 19 -4 -3 -6 10 -6 27 1 18
-3 50 -8 72 -5 22 -9 51 -9 65 0 14 -4 30 -10 37 -5 7 -7 17 -3 23 3 6 1 26
-5 46 -7 19 -12 55 -12 79 -1 39 -3 43 -16 32 -13 -10 -13 -7 1 19 17 33 9 62
-14 48 -12 -7 -12 -5 -1 9 9 10 11 27 7 45 -5 23 -12 30 -31 30 -13 0 -27 -5
-30 -10z m-134 -52 c0 -3 -4 -8 -10 -11 -5 -3 -10 -1 -10 4 0 6 5 11 10 11 6
0 10 -2 10 -4z m-897 -193 c-7 -2 -21 -2 -30 0 -10 3 -4 5 12 5 17 0 24 -2 18
-5z m1117 -98 c0 -13 -4 -26 -8 -29 -5 -3 -8 10 -8 29 1 37 16 37 16 0z m17
-7 c-3 -8 -6 -5 -6 6 -1 11 2 17 5 13 3 -3 4 -12 1 -19z m-1590 -60 c-3 -8 -6
-5 -6 6 -1 11 2 17 5 13 3 -3 4 -12 1 -19z m51 -12 c-7 -8 -15 -12 -17 -11 -5
6 10 25 20 25 5 0 4 -6 -3 -14z m174 -128 c-6 -6 -7 0 -4 19 5 21 7 23 10 9 2
-10 0 -22 -6 -28z m-21 9 c-10 -9 -11 -8 -5 6 3 10 9 15 12 12 3 -3 0 -11 -7
-18z m46 1 c-3 -8 -6 -5 -6 6 -1 11 2 17 5 13 3 -3 4 -12 1 -19z m1383 -42 c0
-3 -4 -8 -10 -11 -5 -3 -10 -1 -10 4 0 6 5 11 10 11 6 0 10 -2 10 -4z m-1246
-202 c5 -14 4 -15 -9 -4 -17 14 -19 20 -6 20 5 0 12 -7 15 -16z m1246 -89 c0
-8 -3 -16 -7 -18 -5 -3 -8 5 -8 18 0 13 3 21 8 18 4 -2 7 -10 7 -18z m-1560
-315 c0 -5 -2 -10 -4 -10 -3 0 -8 5 -11 10 -3 6 -1 10 4 10 6 0 11 -4 11 -10z
m1631 -73 c-10 -9 -11 -8 -5 6 3 10 9 15 12 12 3 -3 0 -11 -7 -18z m-423 -132
c-3 -3 -9 2 -12 12 -6 14 -5 15 5 6 7 -7 10 -15 7 -18z m145 -2 c-4 -11 -3
-14 5 -9 7 4 12 2 12 -3 0 -15 -15 -14 -29 3 -11 13 -10 16 16 25 1 1 -1 -6
-4 -16z m-188 -32 c3 -5 1 -12 -5 -16 -5 -3 -10 1 -10 9 0 18 6 21 15 7z m490
-41 c-10 -11 -20 -18 -22 -16 -6 5 30 44 36 39 2 -1 -4 -12 -14 -23z m-204 -3
c-10 -9 -11 -8 -5 6 3 10 9 15 12 12 3 -3 0 -11 -7 -18z m-1687 -13 c3 -9 1
-23 -4 -32 -9 -14 -10 -12 -4 7 4 16 3 21 -5 17 -6 -4 -11 0 -11 8 0 21 16 21
24 0z m1892 -41 c-10 -10 -19 5 -10 18 6 11 8 11 12 0 2 -7 1 -15 -2 -18z
m-1916 7 c0 -5 -5 -10 -11 -10 -5 0 -7 5 -4 10 3 6 8 10 11 10 2 0 4 -4 4 -10z
m1874 -56 c5 -14 4 -15 -9 -4 -17 14 -19 20 -6 20 5 0 12 -7 15 -16z m70 -66
c-3 -4 -11 -5 -19 -1 -21 7 -19 12 4 10 11 0 18 -5 15 -9z m-676 -23 c-3 -3
-9 2 -12 12 -6 14 -5 15 5 6 7 -7 10 -15 7 -18z m-1431 -47 c-3 -7 -5 -2 -5
12 0 14 2 19 5 13 2 -7 2 -19 0 -25z m30 0 c-3 -8 -6 -5 -6 6 -1 11 2 17 5 13
3 -3 4 -12 1 -19z m1305 -10 c-7 -7 -12 -8 -12 -2 0 14 12 26 19 19 2 -3 -1
-11 -7 -17z m-1381 -85 c-4 -28 -6 -32 -9 -15 -3 22 3 52 11 52 1 0 1 -17 -2
-37z m-29 -45 c-8 -8 -9 -4 -5 13 4 13 8 18 11 10 2 -7 -1 -18 -6 -23z m1274
-145 c-10 -10 -19 5 -10 18 6 11 8 11 12 0 2 -7 1 -15 -2 -18z m-1406 -3 c6
-11 8 -20 6 -20 -3 0 -10 9 -16 20 -6 11 -8 20 -6 20 3 0 10 -9 16 -20z m1166
-274 c15 -16 18 -26 6 -26 -4 0 -13 9 -20 20 -14 23 -7 26 14 6z m-1439 -78
c-3 -8 -6 -5 -6 6 -1 11 2 17 5 13 3 -3 4 -12 1 -19z m30 0 c-3 -8 -6 -5 -6 6
-1 11 2 17 5 13 3 -3 4 -12 1 -19z m1247 -163 c3 -8 1 -15 -4 -15 -6 0 -10 7
-10 15 0 8 2 15 4 15 2 0 6 -7 10 -15z m30 -1 c3 -8 2 -12 -4 -9 -6 3 -10 10
-10 16 0 14 7 11 14 -7z m-1429 -4 c3 -5 1 -10 -4 -10 -6 0 -11 5 -11 10 0 6
2 10 4 10 3 0 8 -4 11 -10z m1378 -40 c-3 -12 -8 -19 -11 -16 -5 6 5 36 12 36
2 0 2 -9 -1 -20z m-1403 -34 c0 -3 -4 -8 -10 -11 -5 -3 -10 -1 -10 4 0 6 5 11
10 11 6 0 10 -2 10 -4z m-74 -111 c9 -8 11 -15 6 -15 -5 0 -15 7 -22 15 -7 8
-9 15 -6 15 4 0 14 -7 22 -15z m1187 -280 c-3 -9 -8 -14 -10 -11 -3 3 -2 9 2
15 9 16 15 13 8 -4z m-1428 -25 c-3 -5 -12 -10 -18 -10 -7 0 -6 4 3 10 19 12
23 12 15 0z m-55 -76 c0 -8 -19 -13 -24 -6 -3 5 1 9 9 9 8 0 15 -2 15 -3z
m1313 -167 c-5 -8 -8 -7 -11 1 -2 7 -9 9 -14 6 -7 -4 -8 -2 -4 4 4 6 13 9 21
6 8 -4 12 -11 8 -17z m-1502 -24 c-12 -20 -14 -14 -5 12 4 9 9 14 11 11 3 -2
0 -13 -6 -23z m-29 -15 c-7 -7 -12 -8 -12 -2 0 14 12 26 19 19 2 -3 -1 -11 -7
-17z m1368 -88 c-18 -12 -30 -13 -30 -2 0 4 10 9 22 9 18 2 20 0 8 -7z m-863
-22 c-3 -8 -6 -5 -6 6 -1 11 2 17 5 13 3 -3 4 -12 1 -19z"/>
<path d="M2399 3426 c-3 -3 -67 -6 -144 -7 -153 -1 -188 -8 -179 -36 4 -11 2
-14 -3 -8 -15 19 -52 15 -58 -6 -4 -11 -10 -17 -14 -15 -11 7 -78 -58 -86 -83
-3 -12 -10 -21 -15 -21 -5 0 -11 -8 -14 -17 -3 -10 -19 -32 -36 -49 -36 -39
-48 -79 -26 -87 10 -4 13 -13 9 -23 -5 -13 -10 -10 -24 17 -18 33 -23 29 -22
-18 0 -7 -2 -11 -6 -10 -3 1 -18 -11 -33 -26 -15 -15 -24 -27 -21 -27 3 0 -3
-8 -14 -17 -11 -10 -23 -28 -27 -41 -4 -12 -11 -20 -15 -18 -4 3 -8 -1 -8 -9
0 -8 3 -12 7 -10 3 2 6 -5 6 -15 0 -15 -3 -17 -15 -7 -12 10 -13 9 -1 -13 12
-22 12 -24 -2 -12 -13 10 -17 10 -22 -3 -4 -11 -2 -14 7 -9 7 4 9 3 4 -2 -5
-5 -12 -9 -15 -10 -19 -2 -42 -17 -42 -27 0 -6 -9 -21 -21 -33 -17 -18 -19
-26 -10 -42 17 -32 13 -37 -8 -11 l-19 24 -7 -27 c-4 -16 -11 -28 -16 -28 -5
0 -9 -9 -9 -19 0 -11 -9 -22 -19 -26 -11 -3 -25 -19 -32 -35 -8 -16 -16 -27
-20 -24 -9 5 -21 -25 -14 -37 4 -5 -2 -6 -11 -2 -14 5 -16 3 -11 -11 4 -10 7
-24 7 -32 0 -9 5 -12 10 -9 6 3 10 2 10 -4 0 -20 -19 -21 -25 -1 -4 11 -11 18
-16 14 -13 -7 -33 -55 -30 -69 2 -5 -1 -7 -5 -3 -9 10 -74 -59 -74 -78 0 -8
-4 -14 -10 -14 -5 0 -14 -15 -19 -32 -5 -18 -10 -26 -10 -18 -1 13 -2 13 -11
0 -13 -20 -13 -33 0 -25 6 3 7 -1 3 -10 -4 -12 -8 -13 -13 -5 -8 14 -30 5 -30
-11 0 -6 5 -7 12 -3 7 5 8 3 4 -5 -5 -7 -10 -10 -13 -7 -8 8 -33 -21 -33 -38
0 -8 -5 -18 -12 -22 -7 -5 -8 -2 -3 7 6 10 5 11 -3 4 -7 -6 -13 -25 -15 -43
-2 -18 -10 -38 -17 -45 -12 -10 -12 -9 -1 6 8 9 9 17 3 17 -14 0 -23 -28 -12
-35 6 -4 10 -16 9 -28 l0 -22 -9 23 c-5 12 -17 22 -25 22 -9 0 -14 -4 -10 -9
3 -5 -6 -21 -20 -35 -14 -14 -25 -35 -24 -48 0 -22 1 -22 9 -3 5 11 9 15 9 8
1 -6 4 -20 7 -30 5 -15 4 -15 -5 -3 -9 13 -11 13 -11 0 -1 -12 -3 -11 -11 3
-18 30 -30 18 -14 -14 9 -17 14 -33 11 -37 -3 -3 -6 0 -6 7 0 7 -5 9 -12 5 -8
-5 -9 -2 -5 9 3 10 2 17 -3 17 -14 0 -32 -40 -26 -57 5 -13 4 -13 -7 -4 -19
15 -36 -6 -31 -39 3 -17 1 -21 -5 -11 -5 7 -14 10 -20 6 -16 -10 -35 -56 -32
-79 2 -10 -2 -15 -7 -12 -5 3 -16 -2 -23 -11 -10 -11 -10 -14 -2 -9 9 5 11 2
7 -9 -4 -9 -9 -14 -11 -11 -11 11 -117 -120 -108 -134 3 -4 -2 -11 -11 -14 -9
-4 -14 -13 -10 -22 3 -8 2 -12 -4 -9 -6 3 -14 -5 -20 -19 -5 -14 -15 -26 -21
-26 -6 0 -8 -7 -5 -16 3 -8 2 -12 -4 -9 -6 3 -10 -1 -10 -10 0 -9 -4 -14 -10
-10 -12 7 -40 -46 -40 -77 0 -14 -3 -19 -8 -11 -5 8 -14 3 -27 -17 -11 -17
-25 -30 -32 -30 -7 0 -16 -8 -22 -17 -8 -15 -12 -16 -23 -4 -7 8 -8 11 -2 8 7
-4 15 0 18 9 7 17 -67 107 -78 96 -3 -3 -6 1 -6 9 -1 16 -126 144 -141 144 -5
0 -9 3 -9 8 1 13 -29 65 -41 73 -8 5 -9 3 -4 -7 8 -12 6 -12 -8 0 -10 8 -16
16 -13 18 6 6 -62 73 -75 73 -7 0 -9 -9 -5 -22 3 -13 6 -29 6 -36 0 -7 3 -11
7 -9 5 3 8 -21 9 -53 0 -33 6 -66 14 -75 7 -8 15 -48 17 -87 2 -40 8 -75 14
-78 5 -4 11 -18 13 -31 2 -13 6 -31 9 -39 3 -8 6 -23 6 -32 4 -66 5 -78 11
-78 4 0 7 -14 8 -31 0 -17 5 -36 10 -42 4 -7 10 -25 11 -42 2 -16 4 -41 5 -54
1 -14 7 -26 14 -29 7 -2 10 -8 6 -13 -3 -5 -2 -30 2 -55 5 -33 9 -42 16 -33 6
10 8 -1 5 -30 -4 -30 -1 -48 9 -58 8 -8 12 -19 8 -24 -3 -5 -1 -33 5 -62 6
-28 13 -70 17 -91 3 -22 9 -35 12 -29 4 6 7 -9 8 -33 0 -24 6 -49 12 -56 6 -8
9 -26 8 -40 -2 -17 3 -29 12 -33 9 -3 13 -14 9 -32 -6 -32 15 -160 32 -192 7
-12 10 -25 7 -29 -3 -3 2 -14 11 -25 10 -11 12 -17 5 -13 -6 4 -12 2 -12 -3 0
-6 5 -11 11 -11 7 0 9 -10 5 -25 -5 -20 -2 -26 18 -31 13 -3 34 0 46 6 17 9
21 9 15 0 -5 -8 -2 -10 11 -7 11 3 59 8 107 12 81 6 88 9 84 26 -3 10 -1 17 4
13 5 -3 9 -12 9 -20 0 -8 5 -14 10 -14 6 0 10 4 10 10 0 5 7 7 15 4 8 -4 15
-1 15 5 0 6 -4 11 -10 11 -5 0 -10 6 -10 13 1 6 10 1 21 -12 17 -21 23 -23 40
-13 10 7 22 12 26 12 5 0 2 -4 -5 -8 -7 -5 16 -6 50 -4 43 3 67 9 76 20 9 12
15 13 20 5 5 -8 77 -12 77 -4 0 1 38 4 85 6 108 5 180 15 203 27 11 6 17 5 17
-2 0 -6 5 -8 12 -4 6 4 56 9 112 11 55 2 106 9 113 14 6 6 17 8 23 4 5 -3 10
0 10 7 0 9 3 9 10 -2 9 -13 10 -13 10 0 0 11 2 12 8 3 8 -12 37 -11 232 12 30
4 72 6 92 6 20 -1 39 3 43 8 3 6 12 8 20 4 9 -3 22 0 30 7 10 9 15 9 15 1 0
-6 5 -11 11 -11 17 0 0 18 -33 35 -25 12 -33 13 -41 3 -6 -9 -7 -6 -4 9 3 13
0 26 -5 30 -6 3 -8 1 -5 -4 4 -6 0 -14 -9 -17 -8 -3 -12 -11 -8 -17 4 -8 3 -9
-5 -5 -9 6 -9 11 0 22 8 10 9 18 0 27 -6 8 -8 17 -4 21 4 4 0 4 -8 1 -8 -3
-26 -1 -40 4 -13 5 -18 10 -11 10 8 1 6 7 -5 19 -21 22 -48 20 -74 -4 -11 -10
-19 -13 -19 -8 0 5 9 15 20 22 24 15 16 36 -10 29 -12 -3 -17 0 -14 7 6 16
-40 41 -57 31 -8 -6 -10 -4 -4 5 6 10 4 12 -9 7 -9 -4 -15 -3 -11 2 9 16 -6
41 -26 41 -10 0 -19 5 -19 11 0 8 -4 8 -14 0 -12 -10 -13 -8 -9 10 4 15 3 20
-5 15 -7 -4 -15 0 -18 8 -3 9 -10 14 -14 11 -5 -3 -11 -1 -15 4 -3 6 -12 8
-21 4 -9 -3 -14 0 -12 8 2 8 -4 14 -12 14 -8 0 -19 6 -23 13 -7 11 -13 10 -29
-5 -21 -18 -21 -18 -9 4 10 19 8 24 -15 39 -22 15 -27 15 -35 3 -6 -9 -8 -2
-7 24 1 21 4 33 8 27 4 -7 13 -3 25 10 10 11 14 20 9 20 -4 0 11 17 34 38 23
21 42 44 42 50 0 7 5 12 11 12 7 0 9 10 7 25 -3 13 -2 23 2 20 3 -2 14 9 24
25 9 17 26 35 37 41 17 8 18 13 8 25 -7 9 -15 11 -18 5 -4 -6 -13 -4 -23 3
-15 11 -14 13 12 13 17 0 30 -4 30 -9 0 -5 5 -6 10 -3 7 5 8 11 1 19 -7 8 -5
12 9 12 10 0 16 -5 13 -10 -3 -5 -1 -6 6 -2 7 4 10 13 8 19 -2 6 4 19 12 28
28 31 41 49 41 54 -1 21 2 25 13 25 8 0 22 15 32 34 11 19 23 33 27 30 4 -3 8
1 8 8 0 8 9 20 19 27 11 8 17 19 15 26 -3 6 7 22 21 35 25 23 33 50 16 50 -5
0 -8 11 -7 24 0 13 3 22 5 20 2 -2 10 1 18 7 9 9 13 8 13 0 0 -6 -4 -11 -8
-11 -10 0 -9 -36 1 -46 4 -4 7 0 7 9 0 10 4 17 8 17 18 0 105 135 104 162 0
15 3 30 8 33 4 3 6 -5 3 -16 -4 -15 -2 -20 6 -18 7 3 12 8 11 13 -1 5 2 12 8
15 5 3 25 28 45 54 32 42 35 52 26 70 -9 18 -9 20 2 10 10 -10 16 -9 31 4 10
9 18 22 18 29 0 7 9 18 20 24 11 6 20 18 20 26 0 8 4 13 9 9 5 -3 12 4 16 15
3 11 11 20 16 20 6 0 8 4 5 9 -8 13 4 42 15 35 5 -3 6 3 2 13 -3 10 -3 15 2
11 13 -12 81 84 83 117 2 34 16 52 27 34 6 -8 4 -10 -5 -4 -10 6 -12 3 -8 -13
3 -12 1 -23 -6 -26 -7 -3 -7 -5 0 -5 12 -1 64 75 64 94 0 8 5 17 12 21 7 5 9
2 4 -7 -4 -8 1 -3 11 11 10 13 26 33 36 42 9 10 17 22 17 27 0 5 7 11 15 15 8
3 15 12 15 21 0 29 52 100 65 87 3 -4 3 2 -1 13 -4 11 -4 17 1 13 10 -9 45 29
45 49 0 8 4 12 9 9 5 -4 12 7 16 24 4 17 10 28 15 25 4 -3 11 6 14 20 4 14 11
25 17 25 6 0 7 5 3 12 -5 7 -2 9 9 5 14 -5 33 17 29 35 -1 5 4 7 11 5 6 -1 12
5 12 13 0 8 8 21 18 28 9 7 17 18 17 23 0 6 6 17 13 24 32 37 38 46 32 55 -3
6 1 7 9 4 10 -4 16 -1 16 9 0 8 7 17 15 21 8 3 15 15 15 26 0 12 4 18 10 15 6
-3 7 1 4 9 -3 9 -10 16 -15 16 -5 0 -9 5 -9 12 0 6 7 4 18 -5 22 -20 33 -22
26 -4 -2 7 7 24 21 37 14 13 25 30 25 37 0 8 5 11 10 8 6 -3 10 3 10 14 0 11
5 23 12 27 7 5 9 2 4 -7 -4 -8 0 -5 9 6 9 11 24 29 33 40 9 11 17 30 16 43 -1
16 2 19 11 12 13 -11 35 6 35 26 0 7 4 14 8 16 14 5 65 78 55 78 -5 0 -15 -6
-23 -12 -12 -11 -12 -10 -1 5 7 9 22 17 33 17 10 0 16 5 13 10 -3 6 -1 10 4
10 6 0 11 5 11 11 0 6 14 22 31 36 16 14 28 31 25 38 -2 6 0 18 6 26 8 11 9
11 5 -3 -9 -26 6 -31 21 -6 10 17 12 18 7 4 -6 -19 -5 -19 13 -3 10 9 22 14
26 10 4 -4 4 1 0 12 -7 17 -5 18 7 8 19 -15 45 -1 33 18 -6 11 -5 12 7 3 17
-14 59 -1 59 18 0 9 3 9 11 -2 7 -11 12 -12 15 -3 3 7 12 9 20 6 9 -3 14 1 14
13 0 15 2 16 9 5 6 -8 14 -10 22 -5 8 5 22 7 32 6 9 -2 20 4 23 12 3 9 10 16
16 16 5 0 6 -4 3 -10 -3 -5 1 -10 9 -10 8 0 18 5 21 10 4 6 10 8 14 5 5 -2 39
0 77 5 38 6 75 11 82 12 6 1 12 7 12 15 0 11 -29 13 -147 12 -82 -1 -249 3
-373 10 -124 6 -247 11 -275 11 -27 -1 -59 1 -70 3 -11 3 -111 8 -222 12 -112
4 -203 11 -203 14 0 4 -50 5 -111 3 -77 -3 -113 -1 -118 7 -4 6 -9 9 -12 7z
m1286 -116 c3 -5 1 -10 -4 -10 -6 0 -11 5 -11 10 0 6 2 10 4 10 3 0 8 -4 11
-10z m-1777 -121 c-3 -20 -5 -19 -9 9 -3 20 -2 29 4 23 5 -5 7 -19 5 -32z
m1442 -23 c0 -2 -8 -10 -17 -17 -16 -13 -17 -12 -4 4 13 16 21 21 21 13z
m-1550 -121 c-7 -9 -15 -13 -19 -10 -3 3 1 10 9 15 21 14 24 12 10 -5z m1417
-17 c-3 -7 -5 -2 -5 12 0 14 2 19 5 13 2 -7 2 -19 0 -25z m-69 -94 c0 -15 -4
-22 -10 -16 -5 5 -6 16 -2 25 9 23 12 21 12 -9z m-82 -76 c5 -7 3 -8 -6 -3 -9
5 -10 2 -5 -14 3 -11 2 -21 -3 -21 -7 0 -10 35 -3 48 3 5 10 1 17 -10z m-59
-90 c-3 -7 -5 -2 -5 12 0 14 2 19 5 13 2 -7 2 -19 0 -25z m43 17 c-7 -8 -18
-15 -24 -15 -6 0 -2 7 8 15 25 19 32 19 16 0z m-153 -186 c2 -16 -1 -19 -9
-11 -5 5 -7 15 -4 21 10 15 12 14 13 -10z m-63 -65 c3 -8 2 -12 -4 -9 -6 3
-10 10 -10 16 0 14 7 11 14 -7z m-103 -177 c-10 -9 -11 -8 -5 6 3 10 9 15 12
12 3 -3 0 -11 -7 -18z m-1462 -69 c0 -27 -2 -29 -8 -13 -5 11 -6 26 -4 33 8
21 13 13 12 -20z m1389 7 c-3 -3 -9 2 -12 12 -6 14 -5 15 5 6 7 -7 10 -15 7
-18z m-1476 -92 c-6 -2 -9 -10 -6 -15 4 -7 2 -8 -5 -4 -13 9 -5 26 12 25 9 0
8 -2 -1 -6z m1408 -16 c0 -7 -4 -6 -10 3 -8 12 -10 12 -10 1 0 -8 -3 -12 -6
-8 -9 9 6 28 17 22 5 -4 9 -12 9 -18z m-1517 -137 c-3 -12 -8 -19 -11 -16 -5
6 5 36 12 36 2 0 2 -9 -1 -20z m1277 -164 c0 -3 -4 -8 -10 -11 -5 -3 -10 -1
-10 4 0 6 5 11 10 11 6 0 10 -2 10 -4z m-1408 -42 c-9 -16 -10 -14 -9 8 1 15
6 23 11 18 4 -4 4 -16 -2 -26z m1419 13 c-10 -9 -11 -8 -5 6 3 10 9 15 12 12
3 -3 0 -11 -7 -18z m-93 -132 c-3 -3 -9 2 -12 12 -6 14 -5 15 5 6 7 -7 10 -15
7 -18z m-2115 -65 c3 -11 2 -20 -3 -20 -4 0 -10 11 -12 25 -6 29 7 25 15 -5z
m23 -57 c-4 -4 -12 -1 -19 7 -9 10 -9 11 1 6 7 -4 12 -2 13 6 0 11 2 11 6 0 3
-7 2 -16 -1 -19z m108 -79 c3 -8 2 -12 -4 -9 -6 3 -10 10 -10 16 0 14 7 11 14
-7z m434 -29 c-3 -3 -9 2 -12 12 -6 14 -5 15 5 6 7 -7 10 -15 7 -18z m-360
-50 c-3 -3 -13 7 -23 22 l-17 28 23 -22 c12 -12 20 -25 17 -28z m1682 -8 c0
-2 -10 -12 -22 -23 l-23 -19 19 23 c18 21 26 27 26 19z m-1429 -54 c13 -16 12
-17 -3 -4 -17 13 -22 21 -14 21 2 0 10 -8 17 -17z m-163 -44 c-3 -8 -7 -3 -11
10 -4 17 -3 21 5 13 5 -5 8 -16 6 -23z m-14 -29 c10 -13 9 -13 -6 -1 -10 7
-18 21 -17 30 0 13 1 14 6 1 3 -8 11 -22 17 -30z m-94 26 c0 -3 -4 -8 -10 -11
-5 -3 -10 -1 -10 4 0 6 5 11 10 11 6 0 10 -2 10 -4z m1547 -88 c-3 -7 -5 -2
-5 12 0 14 2 19 5 13 2 -7 2 -19 0 -25z m-70 16 c-3 -3 -12 -4 -19 -1 -8 3 -5
6 6 6 11 1 17 -2 13 -5z m-1520 -81 c-3 -10 -5 -2 -5 17 0 19 2 27 5 18 2 -10
2 -26 0 -35z m1573 38 c0 -5 -7 -12 -16 -15 -14 -5 -15 -4 -4 9 14 17 20 19
20 6z m-1630 -57 c-8 -27 -8 -25 -7 14 0 27 3 38 8 29 5 -7 4 -27 -1 -43z
m1534 -60 c3 -8 2 -12 -4 -9 -6 3 -10 10 -10 16 0 14 7 11 14 -7z m-1462 -138
c6 4 9 1 7 -5 -8 -22 -24 -16 -26 9 -1 15 0 18 3 7 3 -9 10 -14 16 -11z m1338
-46 c0 -5 -2 -10 -4 -10 -3 0 -8 5 -11 10 -3 6 -1 10 4 10 6 0 11 -4 11 -10z
m-20 -35 c0 -1 -6 -7 -13 -13 -10 -8 -13 -6 -13 7 0 11 6 17 13 14 7 -3 13 -6
13 -8z m-160 -199 c0 -3 -4 -8 -10 -11 -5 -3 -10 -1 -10 4 0 6 5 11 10 11 6 0
10 -2 10 -4z m-1110 -55 c0 -5 -7 -11 -14 -14 -10 -4 -13 -1 -9 9 6 15 23 19
23 5z m1111 -38 c13 -16 12 -17 -3 -4 -17 13 -22 21 -14 21 2 0 10 -8 17 -17z
m-1085 -51 c-14 -15 -15 -13 -3 17 8 23 13 28 15 16 2 -10 -3 -25 -12 -33z
m1284 -63 c0 -6 -4 -7 -10 -4 -5 3 -10 11 -10 16 0 6 5 7 10 4 6 -3 10 -11 10
-16z m-1193 -181 c-3 -8 -6 -5 -6 6 -1 11 2 17 5 13 3 -3 4 -12 1 -19z m-25
-80 c-7 -7 -12 -8 -12 -2 0 14 12 26 19 19 2 -3 -1 -11 -7 -17z m1221 2 c3
-11 1 -20 -4 -20 -5 0 -9 9 -9 20 0 11 2 20 4 20 2 0 6 -9 9 -20z m-23 0 c0
-5 -4 -10 -10 -10 -5 0 -10 5 -10 10 0 6 5 10 10 10 6 0 10 -4 10 -10z m102
-12 c-9 -9 -15 -9 -24 1 -11 10 -10 11 5 6 10 -5 17 -2 17 6 0 7 3 9 7 6 4 -4
1 -13 -5 -19z m-1285 -30 c-3 -8 -6 -5 -6 6 -1 11 2 17 5 13 3 -3 4 -12 1 -19z
m290 -60 c-3 -8 -6 -5 -6 6 -1 11 2 17 5 13 3 -3 4 -12 1 -19z m210 16 c-3 -3
-12 -4 -19 -1 -8 3 -5 6 6 6 11 1 17 -2 13 -5z"/>
<path d="M3940 3351 c0 -5 5 -13 10 -16 6 -3 10 -2 10 4 0 5 -4 13 -10 16 -5
3 -10 2 -10 -4z"/>
<path d="M4346 3313 c-6 -14 -5 -15 5 -6 7 7 10 15 7 18 -3 3 -9 -2 -12 -12z"/>
<path d="M4312 3167 c-19 -9 -76 -76 -179 -212 -5 -6 -24 -30 -44 -55 -58 -73
-60 -80 -36 -113 36 -48 340 -275 378 -282 l34 -6 138 181 c134 175 162 227
140 255 -13 16 -93 66 -93 58 0 -5 -4 -3 -8 3 -12 18 -169 113 -176 107 -3 -4
-6 -2 -6 4 0 12 -72 57 -105 66 -11 3 -31 0 -43 -6z"/>
<path d="M3450 3073 c-8 -3 -30 -22 -50 -41 -19 -19 -30 -33 -25 -29 6 3 11
-3 11 -13 0 -13 -4 -16 -12 -9 -17 14 -58 -43 -42 -59 8 -8 5 -9 -11 -5 -20 5
-26 -4 -22 -30 1 -5 -3 -6 -8 -3 -11 7 -23 -22 -15 -35 3 -5 2 -9 -3 -8 -19 5
-41 -13 -36 -28 4 -10 2 -14 -5 -9 -6 3 -13 -3 -17 -14 -4 -11 -11 -18 -16
-15 -8 5 -14 -15 -10 -37 0 -4 -6 -5 -13 -2 -9 4 -20 -6 -30 -25 -14 -26 -14
-31 -1 -45 8 -8 15 -18 15 -23 0 -4 10 -14 21 -22 19 -11 21 -11 16 3 -4 9 -2
16 3 16 6 0 10 -7 10 -16 0 -9 5 -12 13 -8 8 5 8 2 -2 -9 -12 -15 -11 -17 7
-17 11 0 32 -16 47 -36 16 -21 33 -33 41 -30 8 3 14 0 14 -7 0 -15 41 -42 59
-38 7 1 10 -2 6 -8 -8 -14 8 -14 21 -1 6 6 10 3 10 -9 0 -11 -5 -17 -10 -14
-5 3 -6 1 -2 -5 4 -7 13 -12 20 -12 7 0 21 -9 31 -20 10 -12 25 -18 32 -16 7
3 12 0 10 -6 -4 -23 49 -17 74 7 38 38 48 52 42 59 -4 3 -1 6 6 6 7 0 10 4 6
9 -3 5 3 12 12 15 10 4 33 30 51 59 17 28 45 67 62 86 16 18 27 38 23 44 -3 5
-1 7 5 3 6 -3 13 -2 16 3 4 5 2 12 -4 16 -15 9 -2 25 15 19 18 -7 34 29 27 63
-5 26 -40 55 -55 46 -6 -3 -7 -1 -3 6 4 6 0 14 -11 18 -10 3 -22 13 -27 22 -8
13 -10 12 -17 -4 -7 -20 -8 -20 -8 0 -1 11 -14 32 -30 48 l-29 27 -11 -27 -11
-28 5 27 c7 35 -3 58 -21 51 -8 -3 -14 -1 -14 4 0 14 -59 45 -72 37 -7 -4 -8
-3 -4 5 9 15 -32 50 -59 51 -17 0 -17 2 -5 10 16 10 4 12 -20 3z m157 -165
c-3 -7 -5 -2 -5 12 0 14 2 19 5 13 2 -7 2 -19 0 -25z m20 -10 c-3 -7 -5 -2 -5
12 0 14 2 19 5 13 2 -7 2 -19 0 -25z m93 -74 c0 -3 -7 -1 -15 6 -8 7 -15 17
-15 22 0 5 7 3 15 -6 8 -8 15 -18 15 -22z m1 -197 c-10 -9 -11 -8 -5 6 3 10 9
15 12 12 3 -3 0 -11 -7 -18z m-368 -84 c-3 -7 -6 -13 -8 -13 -2 0 -5 6 -8 13
-3 8 1 14 8 14 7 0 11 -6 8 -14z m300 2 c-3 -9 -8 -14 -10 -11 -3 3 -2 9 2 15
9 16 15 13 8 -4z m25 -15 c-7 -10 -14 -17 -17 -15 -4 4 18 35 25 35 2 0 -1 -9
-8 -20z m-54 -26 c3 -8 2 -12 -4 -9 -6 3 -10 1 -10 -6 0 -7 -2 -10 -5 -7 -5 5
4 38 10 38 2 0 6 -7 9 -16z m-154 -38 c-7 -7 -13 -7 -20 0 -6 6 -3 10 10 10
13 0 16 -4 10 -10z m60 -22 c0 -8 -5 -12 -10 -9 -6 4 -8 11 -5 16 9 14 15 11
15 -7z"/>
<path d="M4511 2366 c-7 -8 -8 -17 -3 -20 6 -3 12 3 15 14 6 24 4 25 -12 6z"/>
<path d="M3555 2186 c-10 -7 -20 -24 -22 -37 -3 -23 -2 -23 12 -5 8 10 12 23
9 27 -3 5 0 9 6 9 13 0 4 -37 -14 -59 -8 -11 -8 -13 4 -9 18 6 52 66 45 79 -8
12 -18 11 -40 -5z"/>
<path d="M3608 2158 c-10 -10 -18 -22 -18 -26 0 -5 -9 -17 -20 -27 -11 -10
-17 -22 -14 -27 4 -6 10 -5 16 3 8 12 10 12 15 1 4 -10 11 -6 23 13 10 16 16
35 12 43 -3 10 -1 13 6 8 7 -4 12 -14 12 -22 0 -8 5 -14 10 -14 14 0 12 11 -8
41 -16 24 -18 24 -34 7z m-8 -55 c-11 -17 -11 -17 -6 0 3 10 6 24 7 30 0 9 2
9 5 0 3 -7 0 -20 -6 -30z"/>
<path d="M3673 2122 c0 -11 4 -19 8 -16 4 2 9 -6 12 -18 3 -20 5 -21 11 -6 5
11 1 24 -13 39 -20 21 -20 21 -18 1z"/>
<path d="M3486 2111 c-3 -4 -1 -13 3 -20 7 -11 11 -9 20 5 11 17 11 17 6 -3
-5 -17 -2 -23 9 -23 12 0 13 5 7 22 -7 21 -37 33 -45 19z"/>
<path d="M3466 2065 c-4 -16 -11 -23 -18 -19 -7 4 -8 3 -4 -5 4 -6 0 -18 -9
-27 -10 -10 -13 -24 -9 -36 4 -14 3 -18 -6 -13 -7 4 -9 17 -5 32 4 16 2 22 -5
18 -14 -9 -12 -46 4 -67 19 -26 24 -22 20 18 -2 27 1 34 11 30 9 -3 12 0 9 9
-4 10 3 13 29 11 31 -3 34 -1 31 21 -3 29 -11 40 -21 28 -5 -4 -2 -10 4 -12
10 -3 9 -9 -3 -20 -8 -8 -18 -12 -22 -9 -3 4 -2 10 3 14 11 8 13 37 4 47 -4 3
-10 -6 -13 -20z"/>
<path d="M3620 2080 c0 -5 5 -10 10 -10 6 0 10 5 10 10 0 6 -4 10 -10 10 -5 0
-10 -4 -10 -10z"/>
<path d="M3650 2080 c0 -5 5 -10 10 -10 6 0 10 5 10 10 0 6 -4 10 -10 10 -5 0
-10 -4 -10 -10z"/>
<path d="M3740 2076 c0 -2 7 -7 16 -10 8 -3 12 -2 9 4 -6 10 -25 14 -25 6z"/>
<path d="M2670 2061 c0 -5 7 -17 16 -25 13 -14 13 -16 0 -16 -8 0 -21 7 -30
15 -13 13 -15 13 -21 -5 -3 -11 -15 -25 -26 -30 -11 -6 -19 -21 -19 -35 0 -13
-5 -27 -12 -31 -8 -5 -9 -1 -4 12 5 14 4 16 -4 7 -9 -8 -9 -16 -2 -30 10 -17
11 -17 17 0 4 9 12 17 17 17 6 0 7 -7 4 -16 -5 -13 -4 -14 7 -6 8 7 16 10 19
7 3 -3 4 9 3 25 -1 18 4 34 13 39 10 6 11 10 3 15 -6 4 -11 12 -11 17 0 5 11
2 25 -7 21 -14 28 -14 42 -3 15 12 16 12 10 -3 -3 -10 -2 -18 3 -18 18 0 10
29 -15 55 -28 27 -35 30 -35 16z m-30 -61 c0 -5 -5 -10 -11 -10 -5 0 -7 5 -4
10 3 6 8 10 11 10 2 0 4 -4 4 -10z m-12 -42 c-7 -19 -21 -12 -25 11 -3 20 -1
22 12 11 9 -7 14 -17 13 -22z"/>
<path d="M2714 2055 c11 -8 22 -12 25 -9 6 6 -19 24 -34 24 -5 -1 -1 -7 9 -15z"/>
<path d="M3783 2045 c0 -8 4 -12 9 -9 5 3 6 10 3 15 -9 13 -12 11 -12 -6z"/>
<path d="M2746 2024 c-7 -19 2 -37 15 -29 12 8 12 45 0 45 -5 0 -12 -7 -15
-16z"/>
<path d="M2785 2009 c-4 -5 -4 -13 -1 -16 3 -4 6 0 6 8 0 11 2 11 10 -1 6 -9
10 -10 10 -3 0 17 -17 25 -25 12z"/>
<path d="M3776 2006 c7 -18 26 -17 30 2 1 7 0 8 -3 2 -3 -8 -9 -7 -19 1 -12
10 -13 9 -8 -5z"/>
<path d="M3820 2008 c0 -9 9 -19 19 -23 19 -6 21 -18 6 -60 l-8 -20 17 20 c13
16 15 17 10 3 -7 -21 11 -24 19 -4 3 8 1 17 -6 19 -7 2 -9 8 -5 12 4 4 14 2
23 -5 8 -7 15 -9 15 -6 0 12 -32 40 -49 43 -8 1 -21 10 -28 19 -12 16 -13 16
-13 2z"/>
<path d="M2826 1984 c3 -12 -1 -26 -10 -33 -20 -17 -9 -41 18 -41 21 1 21 1
-2 13 -12 7 -20 16 -16 20 4 3 15 2 25 -3 12 -7 19 -6 22 3 4 9 6 9 6 0 1 -7
6 -13 12 -13 8 0 8 4 0 14 -7 8 -22 12 -34 9 -15 -3 -18 -2 -10 4 10 7 10 13
-2 29 -14 19 -14 19 -9 -2z"/>
<path d="M3377 1974 c-3 -3 -3 -13 0 -22 4 -10 2 -13 -5 -8 -7 4 -12 3 -12 -3
0 -11 18 -24 38 -27 17 -3 15 14 -3 33 -8 8 -13 19 -10 24 7 10 2 12 -8 3z"/>
<path d="M3344 1918 c3 -12 1 -15 -10 -11 -19 7 -18 -14 2 -25 11 -6 13 -11 5
-16 -6 -4 -11 -2 -11 3 0 16 -26 13 -40 -4 -17 -21 3 -46 22 -27 6 6 8 15 4
19 -4 4 -12 1 -17 -7 -9 -13 -10 -13 -7 -1 7 24 27 24 36 0 l9 -23 7 25 c14
44 15 53 5 68 -9 14 -10 14 -5 -1z"/>
<path d="M3921 1913 c0 -12 4 -25 9 -28 6 -3 10 -14 10 -23 0 -15 -2 -15 -11
-2 -8 12 -9 10 -4 -7 4 -16 2 -22 -7 -20 -7 2 -10 2 -6 0 4 -2 4 -12 1 -21 -7
-20 -6 -19 32 32 16 22 23 36 17 32 -7 -4 -12 -1 -12 9 0 9 -4 14 -9 10 -5 -3
-12 5 -14 17 -4 23 -4 23 -6 1z"/>
<path d="M3940 1919 c0 -5 4 -8 9 -5 5 3 12 -1 15 -10 4 -9 9 -14 13 -11 7 8
-15 37 -28 37 -5 0 -9 -5 -9 -11z"/>
<path d="M2527 1902 c-12 -14 -14 -25 -8 -47 5 -17 10 -23 10 -15 1 12 3 12
10 2 4 -8 7 5 7 33 -1 25 -1 45 -2 45 0 0 -8 -8 -17 -18z m13 -22 c0 -5 -2
-10 -4 -10 -3 0 -8 5 -11 10 -3 6 -1 10 4 10 6 0 11 -4 11 -10z"/>
<path d="M2889 1918 c-7 -25 -7 -48 0 -43 5 3 12 1 15 -4 4 -5 2 -12 -4 -16
-5 -3 -10 -11 -10 -17 0 -7 9 -2 21 10 11 12 24 20 30 17 15 -10 10 -25 -6
-19 -8 4 -15 1 -15 -5 0 -14 23 -14 36 -1 8 8 10 -5 8 -41 -2 -35 1 -48 7 -38
7 12 10 12 18 0 5 -8 11 -9 15 -3 3 5 -3 17 -14 27 -11 10 -20 25 -20 34 0 11
4 9 16 -7 8 -12 20 -22 27 -22 8 0 8 3 -1 12 -7 7 -12 19 -12 27 0 11 4 10 15
-5 8 -10 15 -14 15 -8 0 20 -26 48 -34 35 -8 -12 -26 -6 -26 10 0 6 5 7 12 3
6 -4 8 -3 5 4 -4 5 -15 9 -25 8 -9 -2 -24 6 -32 18 -13 18 -38 32 -41 24z m41
-38 c0 -15 -5 -12 -26 11 -19 22 -19 22 4 10 12 -6 22 -16 22 -21z"/>
<path d="M2480 1845 c-7 -9 -10 -18 -6 -22 3 -3 6 -1 6 5 0 6 7 9 15 6 11 -5
13 -2 9 10 -8 20 -8 20 -24 1z"/>
<path d="M3855 1816 c-19 -29 -15 -91 5 -91 7 0 16 7 18 15 4 12 2 13 -9 3
-13 -10 -15 -7 -17 22 -2 18 2 37 8 40 17 11 24 -3 10 -19 -6 -9 -10 -21 -8
-28 3 -7 12 1 22 20 11 20 12 32 5 32 -6 0 -9 7 -5 15 9 24 -12 17 -29 -9z"/>
<path d="M3040 1818 c0 -7 5 -20 10 -28 8 -12 10 -11 10 7 0 12 -4 25 -10 28
-5 3 -10 0 -10 -7z"/>
<path d="M3266 1813 c-4 -9 -3 -20 1 -24 4 -4 9 3 9 17 2 28 -1 31 -10 7z"/>
<path d="M2434 1775 c-15 -20 -24 -38 -22 -41 3 -3 16 11 28 31 12 20 25 34
28 31 3 -3 -7 -24 -22 -47 -15 -23 -22 -39 -14 -37 7 3 19 15 25 29 12 22 13
22 13 3 0 -19 -46 -73 -53 -63 -2 2 -8 15 -14 29 l-11 25 -7 -29 c-6 -21 -4
-32 7 -40 8 -6 16 -15 18 -21 3 -13 31 -47 53 -64 15 -12 17 -11 16 10 0 13
-3 18 -6 11 -2 -6 -9 -9 -14 -6 -6 3 -5 12 3 21 14 18 21 180 7 188 -4 3 -20
-11 -35 -30z m6 -100 c7 8 17 15 23 15 7 0 7 -4 -1 -12 -9 -9 -9 -15 0 -25 9
-11 8 -18 -4 -30 -15 -14 -18 -13 -32 16 -9 17 -21 31 -26 31 -6 0 -10 5 -10
12 0 6 8 4 19 -6 16 -15 19 -15 31 -1z"/>
<path d="M2436 1651 c-3 -5 1 -11 9 -14 9 -4 12 -1 8 9 -6 16 -10 17 -17 5z"/>
<path d="M3073 1793 c4 -6 0 -16 -7 -22 -11 -10 -16 -8 -24 5 -8 14 -10 14
-15 -6 -4 -16 -2 -20 9 -16 11 4 13 0 8 -18 -3 -13 -1 -27 4 -30 6 -4 8 3 5
16 -3 17 -2 19 5 10 7 -11 11 -10 17 5 13 27 13 53 2 60 -6 3 -7 1 -4 -4z"/>
<path d="M2529 1768 c-10 -18 -9 -20 6 -15 9 4 19 7 21 7 2 0 4 7 4 15 0 22
-18 18 -31 -7z"/>
<path d="M3890 1770 c-6 -11 -7 -20 -3 -20 5 0 14 9 21 20 7 11 8 20 2 20 -5
0 -14 -9 -20 -20z"/>
<path d="M3306 1747 c3 -10 9 -15 12 -12 3 3 0 11 -7 18 -10 9 -11 8 -5 -6z"/>
<path d="M3371 1753 c0 -7 -10 -13 -21 -13 -22 0 -27 -15 -8 -26 6 -4 8 -3 5
4 -5 7 3 7 28 -1 19 -6 35 -15 35 -20 0 -5 -7 -7 -14 -4 -25 10 -8 -16 26 -40
29 -20 33 -21 41 -7 6 10 5 20 -3 27 -10 9 -12 8 -7 -5 4 -10 2 -18 -3 -18 -6
0 -11 15 -11 33 l-1 32 -8 -30 -8 -30 -1 28 c-1 20 -7 31 -20 34 -11 3 -22 15
-24 27 -2 11 -5 15 -6 9z"/>
<path d="M3390 1751 c0 -5 5 -13 10 -16 6 -3 10 -2 10 4 0 5 -4 13 -10 16 -5
3 -10 2 -10 -4z"/>
<path d="M3420 1740 c0 -11 2 -20 4 -20 2 0 6 9 9 20 3 11 1 20 -4 20 -5 0 -9
-9 -9 -20z"/>
<path d="M3131 1648 c-22 -24 -41 -47 -41 -52 0 -8 -91 -126 -158 -204 -20
-24 -40 -55 -44 -69 -8 -29 12 -76 39 -92 10 -6 14 -11 10 -11 -5 0 59 -50
142 -110 82 -61 153 -115 156 -120 3 -6 22 -10 40 -10 32 0 41 8 122 111 49
61 90 116 92 122 2 6 26 39 53 73 26 34 50 75 53 90 5 27 -2 35 -101 109 -58
44 -117 86 -130 93 -14 7 -22 17 -19 21 8 13 -118 91 -147 91 -18 0 -40 -14
-67 -42z"/>
<path d="M2976 1668 c3 -4 0 -8 -5 -8 -6 0 -11 -5 -11 -11 0 -8 5 -8 15 1 19
16 20 -3 2 -22 -8 -7 -12 -18 -10 -24 2 -7 -8 -11 -27 -9 -20 2 -30 -2 -30
-11 0 -15 15 -19 23 -6 2 4 2 2 1 -5 -2 -7 2 -15 8 -19 6 -4 8 -3 5 3 -4 6 0
14 9 17 8 3 20 19 25 36 6 17 16 27 22 23 6 -4 8 2 4 16 -4 18 -2 21 11 16 9
-3 13 -2 8 2 -10 10 -56 11 -50 1z"/>
<path d="M3486 1669 c2 -4 0 -10 -6 -14 -5 -3 -9 -16 -9 -28 1 -17 2 -18 6 -4
2 9 9 15 14 12 5 -4 5 -14 -1 -26 -7 -11 -7 -19 -1 -19 5 0 12 6 14 13 3 7 6
5 6 -5 1 -10 6 -18 11 -18 7 0 7 6 1 18 -5 9 -7 31 -5 47 2 25 -1 31 -16 31
-10 0 -17 -4 -14 -7z m22 -34 c-3 -3 -9 2 -12 12 -6 14 -5 15 5 6 7 -7 10 -15
7 -18z"/>
<path d="M3768 1675 c-3 -6 -5 -26 -4 -45 3 -45 -2 -54 -22 -38 -14 10 -15 10
-4 -2 16 -19 16 -35 -1 -21 -8 6 -17 7 -21 3 -4 -4 -14 2 -22 12 -11 16 -17
17 -26 8 -9 -9 -8 -12 6 -12 13 0 16 -5 11 -19 -3 -11 -1 -22 5 -26 15 -9 3
-24 -18 -20 -9 1 -11 0 -3 -2 12 -4 12 -6 0 -14 -8 -5 -9 -9 -3 -9 6 0 34 22
62 49 45 44 50 52 47 85 -3 31 -1 35 11 25 8 -7 17 -9 21 -5 3 3 1 6 -7 6 -10
0 -10 4 1 18 13 15 12 16 -3 4 -13 -10 -17 -10 -20 0 -3 7 -7 8 -10 3z m-34
-126 c-3 -5 -10 -7 -15 -4 -5 4 -9 1 -9 -5 0 -6 -4 -8 -10 -5 -16 10 -12 23 8
28 22 5 34 -2 26 -14z"/>
<path d="M2490 1585 c0 -8 2 -15 4 -15 2 0 6 7 10 15 3 8 1 15 -4 15 -6 0 -10
-7 -10 -15z"/>
<path d="M2524 1585 c-18 -15 -18 -15 0 -13 10 2 21 -3 24 -11 2 -8 0 -11 -6
-7 -5 3 -13 -1 -16 -10 -3 -8 -2 -13 2 -10 5 3 16 -4 26 -15 10 -12 20 -18 24
-14 4 3 -1 11 -11 16 -11 7 -16 17 -12 29 3 10 1 22 -6 25 -8 6 -7 10 2 16 8
5 9 9 3 9 -5 0 -19 -7 -30 -15z"/>
<path d="M3548 1594 c-6 -6 18 -61 31 -68 4 -3 13 -1 20 3 9 6 10 11 2 15 -6
4 -11 1 -11 -6 -1 -7 -8 1 -17 17 -10 17 -16 33 -15 38 2 8 -2 9 -10 1z"/>
<path d="M3570 1593 c0 -6 8 -17 18 -24 16 -13 16 -13 2 6 -8 11 -16 22 -17
24 -2 2 -3 0 -3 -6z"/>
<path d="M2886 1550 c1 -22 -2 -38 -6 -35 -5 3 -6 -4 -3 -15 3 -11 0 -20 -6
-20 -6 0 -11 -6 -11 -12 0 -7 11 -1 24 12 17 18 21 30 15 42 -11 21 -11 28 0
28 5 0 12 -8 14 -17 4 -17 5 -17 6 0 0 10 -7 27 -17 37 -18 19 -18 19 -16 -20z"/>
<path d="M2498 1553 c7 -3 16 -2 19 1 4 3 -2 6 -13 5 -11 0 -14 -3 -6 -6z"/>
<path d="M2594 1509 c-3 -6 -3 -13 0 -16 3 -4 6 -1 6 6 0 7 4 10 9 7 5 -3 7
-16 5 -29 -2 -12 -1 -15 2 -7 4 8 10 22 15 30 5 12 2 16 -12 17 -10 1 -21 -3
-25 -8z"/>
<path d="M2805 1487 c3 -43 15 -64 15 -24 0 14 5 29 10 32 6 3 10 11 10 17 0
7 -5 7 -14 -1 -11 -9 -15 -9 -19 1 -2 7 -3 -4 -2 -25z"/>
<path d="M3616 1505 c10 -8 24 -14 29 -14 6 0 1 6 -9 14 -11 8 -24 15 -30 15
-5 0 -1 -7 10 -15z"/>
<path d="M2850 1500 c0 -5 5 -10 11 -10 5 0 7 5 4 10 -3 6 -8 10 -11 10 -2 0
-4 -4 -4 -10z"/>
<path d="M2834 1465 c-8 -20 3 -48 16 -40 5 3 10 12 10 18 0 7 -4 6 -11 -3 -8
-12 -9 -9 -5 13 7 29 -1 37 -10 12z"/>
<path d="M2680 1421 c0 -14 2 -14 10 -1 8 13 10 12 10 -3 0 -10 8 -21 18 -24
9 -4 20 -11 24 -17 8 -13 59 -16 52 -4 -3 4 0 8 5 8 6 0 11 8 11 18 0 14 2 15
10 2 8 -13 10 -12 10 3 0 18 -15 23 -25 7 -7 -11 -35 -2 -35 12 0 6 8 7 18 3
13 -5 15 -4 5 6 -10 10 -19 8 -43 -9 -35 -26 -40 -27 -40 -6 0 8 4 13 9 9 5
-3 12 -1 15 4 4 5 -7 9 -24 9 -21 -1 -30 -6 -30 -17z m99 -25 c9 -10 8 -15 -1
-19 -15 -5 -40 17 -31 27 10 10 20 7 32 -8z"/>
<path d="M2782 1164 c-12 -8 -22 -21 -22 -27 0 -7 7 -3 15 7 8 11 15 15 15 9
0 -7 -5 -15 -11 -18 -6 -4 -15 -17 -20 -29 -9 -21 -10 -21 -5 2 6 32 -10 27
-25 -7 -7 -16 -16 -28 -20 -25 -9 5 -21 -25 -14 -37 4 -5 0 -6 -8 -3 -8 3 -18
0 -23 -7 -5 -8 -3 -10 5 -4 8 4 6 -4 -4 -18 -10 -15 -13 -32 -9 -39 6 -10 4
-10 -9 0 -14 12 -16 11 -12 -7 3 -14 0 -19 -7 -15 -8 5 -9 1 -4 -11 5 -14 4
-15 -7 -7 -9 8 -18 2 -36 -24 -14 -19 -24 -41 -24 -49 0 -8 -4 -12 -9 -9 -4 3
-8 -5 -8 -16 0 -15 -5 -20 -14 -17 -9 4 -13 0 -11 -11 2 -9 4 -22 4 -28 1 -5
8 -19 17 -30 8 -10 13 -14 10 -7 -4 6 -1 15 5 19 7 4 9 3 5 -4 -6 -11 4 -23
49 -57 15 -11 40 -33 56 -50 28 -29 29 -29 44 -10 16 19 16 19 5 -3 -9 -18 -8
-23 4 -28 21 -8 38 5 31 25 -5 12 -4 13 6 4 9 -9 9 -16 1 -25 -6 -8 -8 -18 -4
-24 9 -14 54 -39 65 -36 4 1 6 -1 6 -5 -3 -20 2 -24 16 -13 13 11 15 10 9 -6
-5 -18 -4 -18 12 1 14 17 16 17 11 3 -10 -28 3 -48 30 -48 33 0 96 48 88 69
-3 8 -3 12 1 8 9 -8 94 100 94 119 0 8 5 14 10 14 6 0 10 8 10 17 0 9 3 13 7
10 10 -11 33 13 33 35 0 10 4 17 9 14 5 -3 18 10 30 29 20 35 12 51 -9 18 -7
-11 -10 -12 -7 -4 2 8 12 19 23 25 27 16 34 28 28 51 -7 23 -34 54 -34 39 0
-6 -7 -11 -15 -11 -11 0 -12 4 -4 13 6 8 7 14 0 18 -5 4 -15 -2 -21 -11 -9
-16 -10 -15 -5 5 4 15 2 22 -6 20 -7 -2 -16 8 -20 22 -4 14 -7 19 -8 12 -1 -9
-6 -10 -20 -3 -10 6 -21 8 -24 4 -4 -3 -11 5 -16 18 -8 23 -61 76 -61 63 0 -4
-10 6 -21 20 -14 18 -24 24 -29 17 -4 -7 -11 -3 -19 12 -17 32 -67 62 -74 45
-4 -10 -6 -10 -6 0 -1 17 -22 15 -49 -4z m5 -66 c-3 -8 -6 -5 -6 6 -1 11 2 17
5 13 3 -3 4 -12 1 -19z m124 -18 c5 0 9 -5 9 -11 0 -8 -5 -8 -15 1 -8 7 -14
22 -14 34 2 20 2 20 6 -1 2 -13 9 -23 14 -23z m-304 -182 c-3 -8 -6 -5 -6 6
-1 11 2 17 5 13 3 -3 4 -12 1 -19z m552 -122 c0 -7 -2 -6 -6 2 -2 6 -9 10 -14
6 -5 -3 -9 2 -9 12 0 13 3 14 15 4 8 -7 15 -18 14 -24z m-108 -139 c-10 -9
-11 -8 -5 6 3 10 9 15 12 12 3 -3 0 -11 -7 -18z m-64 -29 c-3 -8 -6 -5 -6 6
-1 11 2 17 5 13 3 -3 4 -12 1 -19z m37 6 c3 -8 2 -12 -4 -9 -6 3 -10 10 -10
16 0 14 7 11 14 -7z m-112 -99 c3 -13 1 -22 -3 -19 -9 5 -13 44 -5 44 2 0 6
-11 8 -25z m22 -1 c3 -8 2 -12 -4 -9 -6 3 -10 10 -10 16 0 14 7 11 14 -7z"/>
<path d="M1919 1105 c-26 -14 -109 -116 -109 -134 0 -5 -4 -11 -8 -13 -9 -3
-92 -112 -92 -120 0 -3 -14 -21 -31 -39 -47 -50 -53 -74 -28 -109 28 -37 350
-259 387 -266 30 -6 22 -14 267 299 27 36 39 61 39 84 0 18 -2 34 -4 36 -146
116 -353 267 -371 271 -13 3 -36 -1 -50 -9z"/>
<path d="M3051 1014 c0 -11 3 -14 6 -6 3 7 2 16 -1 19 -3 4 -6 -2 -5 -13z"/>
<path d="M5897 871 c-13 -13 -15 -26 -11 -51 5 -24 4 -31 -4 -26 -7 4 -20 -6
-31 -26 -11 -18 -24 -38 -29 -44 -11 -13 -32 -51 -32 -58 0 -3 4 -6 10 -6 6 0
9 3 8 8 -4 19 15 39 33 35 10 -3 16 -9 13 -14 -3 -5 -9 -7 -14 -4 -5 3 -14 -3
-19 -14 -15 -27 -14 -34 5 -27 21 8 9 -31 -18 -60 -11 -13 -15 -24 -10 -28 6
-3 12 0 15 6 3 9 9 8 18 -5 13 -16 29 -17 134 -14 l120 3 -121 2 -120 2 0 39
c1 22 4 37 9 34 4 -2 5 -9 2 -14 -4 -5 -2 -9 3 -9 9 0 28 34 20 36 -2 0 3 9
11 18 11 13 11 20 3 28 -18 18 -14 32 5 17 15 -12 16 -12 8 1 -13 21 -15 40
-4 40 4 0 6 7 3 15 -8 21 13 19 25 -2 6 -10 11 -13 11 -7 0 5 -5 15 -12 22
-16 16 4 16 21 0 11 -11 11 -9 0 9 -7 12 -16 20 -20 17 -4 -2 -9 6 -11 18 -2
13 -9 22 -16 21 -6 -2 -12 4 -12 13 0 10 6 14 15 10 9 -3 15 0 15 9 0 19 76
21 82 3 3 -8 6 -7 10 3 9 24 -91 24 -115 0z m8 -95 c-8 -6 -21 -27 -29 -46
l-16 -35 5 35 c4 35 4 35 -7 8 -7 -16 -15 -28 -20 -28 -4 0 0 16 9 35 10 20
22 34 29 31 7 -3 16 4 20 16 5 16 8 17 14 7 5 -8 3 -17 -5 -23z m-20 -96 c3
-5 3 -15 -1 -21 -6 -11 -23 6 -24 24 0 10 18 9 25 -3z m-13 -54 c-3 -5 -11 0
-19 10 -8 10 -18 18 -23 17 -5 -2 -7 4 -3 12 4 13 9 12 27 -7 12 -13 20 -27
18 -32z"/>
<path d="M6027 862 c7 -4 9 -13 4 -21 -5 -7 -14 -10 -20 -7 -6 4 -11 0 -11
-10 0 -10 3 -14 7 -11 3 4 15 0 25 -10 10 -9 18 -11 18 -5 0 6 -5 14 -10 17
-8 5 -7 11 0 20 13 16 5 35 -13 35 -9 0 -9 -2 0 -8z"/>
<path d="M6071 796 c15 -27 17 -39 9 -60 -6 -18 -6 -25 0 -21 6 3 10 13 10 22
0 24 13 7 16 -20 2 -19 -2 -22 -24 -21 -15 1 -26 7 -24 13 2 12 -11 15 -21 4
-4 -3 1 -12 10 -18 14 -10 15 -16 5 -27 -17 -21 10 -59 29 -40 11 10 10 14 0
25 -12 10 -13 8 -7 -8 5 -15 4 -17 -4 -9 -15 15 -3 54 17 54 9 0 13 -6 9 -15
-3 -8 -1 -15 4 -15 5 0 6 -7 3 -17 -4 -11 -3 -14 6 -9 6 4 10 19 9 33 -2 15 3
28 11 31 9 3 11 -1 6 -17 -3 -11 -1 -29 5 -38 9 -15 10 -13 6 12 l-6 30 14
-24 c8 -14 12 -31 9 -38 -3 -7 -1 -13 4 -13 19 0 22 13 6 36 -8 13 -12 24 -9
24 4 0 -2 9 -13 21 -10 11 -33 47 -51 80 -17 32 -35 59 -40 59 -5 0 0 -15 11
-34z"/>
<path d="M5962 780 c7 -11 16 -20 21 -20 4 0 5 5 2 10 -3 6 -1 10 4 10 6 0 11
5 11 11 0 8 -5 8 -15 -1 -10 -9 -15 -9 -15 -1 0 6 -5 11 -10 11 -6 0 -5 -8 2
-20z"/>
<path d="M5910 719 c0 -5 5 -7 10 -4 6 3 10 8 10 11 0 2 -4 4 -10 4 -5 0 -10
-5 -10 -11z"/>
<path d="M6017 689 c7 -7 15 -10 18 -7 3 3 -2 9 -12 12 -14 6 -15 5 -6 -5z"/>
<path d="M5776 634 c-10 -25 1 -29 14 -5 6 12 7 21 1 21 -5 0 -12 -7 -15 -16z"/>
<path d="M5792 610 c-7 -11 -9 -20 -4 -20 10 0 32 22 32 32 0 15 -15 8 -28
-12z"/>
<path d="M5737 586 c-19 -28 -10 -44 10 -18 12 16 13 16 7 0 -4 -12 -1 -18 9
-18 13 0 14 5 6 30 -6 17 -12 30 -14 30 -1 0 -10 -11 -18 -24z"/>
<path d="M6180 601 c0 -5 7 -14 15 -21 8 -7 15 -18 15 -26 0 -7 5 -16 10 -19
14 -9 7 25 -10 53 -15 22 -30 29 -30 13z"/>
<path d="M6155 563 c-5 -33 -44 -93 -59 -93 -2 0 -7 10 -9 23 -3 12 -4 5 -4
-16 1 -27 5 -37 16 -35 8 2 14 7 12 11 -3 12 29 40 37 33 3 -4 1 -17 -6 -29
-9 -15 -5 -13 13 7 20 21 29 26 35 17 4 -8 10 -9 14 -3 3 5 -3 17 -14 27 -13
11 -19 30 -19 49 2 27 2 28 6 6 5 -27 21 -50 33 -50 10 0 -26 76 -39 84 -5 4
-12 -11 -16 -31z m15 -63 c0 -5 -4 -10 -10 -10 -5 0 -10 5 -10 10 0 6 5 10 10
10 6 0 10 -4 10 -10z"/>
<path d="M6097 553 c-4 -3 -7 -11 -7 -17 0 -6 5 -5 12 2 6 6 9 14 7 17 -3 3
-9 2 -12 -2z"/>
<path d="M6113 535 c-6 -14 -8 -25 -4 -25 12 0 31 23 31 37 0 21 -14 15 -27
-12z"/>
<path d="M5717 528 c4 -19 3 -20 -6 -8 -9 13 -11 13 -11 -2 0 -9 -5 -18 -12
-20 -16 -6 -1 -28 19 -28 13 0 14 2 2 17 -12 14 -12 16 1 11 11 -4 16 1 18 18
1 12 -2 25 -7 29 -5 3 -7 -5 -4 -17z"/>
<path d="M5745 530 c3 -5 8 -10 11 -10 2 0 4 5 4 10 0 6 -5 10 -11 10 -5 0 -7
-4 -4 -10z"/>
<path d="M6232 502 c-9 -27 -9 -32 5 -32 10 0 13 5 8 18 -5 13 -3 14 5 6 9 -9
9 -18 -1 -35 -12 -23 -11 -24 8 -6 11 9 23 14 28 10 10 -10 -9 27 -28 51 -13
18 -15 18 -25 -12z"/>
<path d="M5764 458 c0 -10 3 -18 7 -18 4 0 9 8 11 18 3 10 0 19 -6 19 -7 0
-12 -9 -12 -19z"/>
<path d="M5802 460 c-7 -12 -8 -20 -2 -20 5 0 10 6 10 13 0 8 4 7 10 -3 5 -8
10 -10 10 -5 0 6 -4 15 -8 22 -6 9 -11 7 -20 -7z"/>
<path d="M5663 455 c4 -5 -1 -18 -11 -29 -24 -27 -32 -50 -23 -65 5 -8 12 -6
25 7 20 24 29 79 13 88 -7 4 -9 3 -4 -1z m7 -34 c0 -5 -9 -19 -20 -32 -17 -21
-19 -21 -13 -4 10 33 33 57 33 36z"/>
<path d="M6276 425 c4 -8 1 -15 -5 -15 -6 0 -11 -8 -11 -18 0 -20 18 -42 34
-42 6 0 5 5 -2 12 -7 7 -12 19 -12 27 0 11 4 10 15 -5 8 -10 15 -14 15 -7 0 6
-4 15 -10 18 -5 3 -10 15 -10 26 0 10 -4 19 -10 19 -5 0 -7 -7 -4 -15z"/>
<path d="M6246 422 c-11 -19 -16 -72 -6 -72 5 0 10 -4 10 -8 0 -5 -6 -9 -14
-9 -9 0 -13 9 -11 24 3 34 -12 28 -17 -6 -2 -17 -1 -28 4 -25 4 3 8 -1 8 -8 0
-9 3 -9 10 2 9 13 10 13 10 0 0 -13 1 -13 11 0 8 11 12 12 16 2 2 -6 9 -9 15
-6 5 4 0 16 -12 29 -16 17 -21 32 -18 54 5 32 3 37 -6 23z"/>
<path d="M371 404 c0 -11 3 -14 6 -6 3 7 2 16 -1 19 -3 4 -6 -2 -5 -13z"/>
<path d="M5661 364 c-26 -37 -41 -43 -41 -16 -1 13 -4 11 -15 -8 -14 -27 -10
-44 5 -20 6 8 10 10 10 5 0 -6 8 -11 19 -11 10 0 17 5 15 11 -3 6 5 11 17 12
14 1 19 -3 15 -13 -3 -8 1 -14 10 -14 8 0 12 5 9 11 -4 5 5 21 20 35 14 13 23
29 20 34 -11 18 -23 11 -18 -10 4 -14 0 -20 -10 -20 -8 0 -18 -6 -20 -12 -3
-8 -6 -6 -6 5 -1 10 6 17 17 18 13 0 14 2 2 6 -8 3 -17 10 -20 14 -3 4 -16 -8
-29 -27z m19 -4 c-6 -11 -13 -20 -16 -20 -2 0 0 9 6 20 6 11 13 20 16 20 2 0
0 -9 -6 -20z"/>
<path d="M6186 372 c-2 -4 -1 -14 5 -22 7 -12 9 -10 9 8 0 23 -5 28 -14 14z"/>
<path d="M6314 344 c-4 -10 -9 -22 -11 -26 -2 -5 7 -7 21 -6 30 3 31 6 11 32
-14 19 -15 19 -21 0z"/>
</g>
</svg>
